<mxfile host="app.diagrams.net" modified="2024-05-15T23:18:46.497Z" agent="Mozilla/5.0 (Windows NT 10.0; Win64; x64) AppleWebKit/537.36 (KHTML, like Gecko) Chrome/124.0.0.0 Safari/537.36" version="24.4.2" etag="4KOy7i8NPAa9dBCkias9" type="github">
  <diagram name="PÃ¡gina-1" id="aGoZLN_AsxzIoG41DzQt">
    <mxGraphModel>
      <root>
        <mxCell id="0" />
        <mxCell id="1" parent="0" />
      </root>
    </mxGraphModel>
  </diagram>
</mxfile>
